<?xml version="1.0" encoding="iso-8859-1"?>
<!-- Uploaded to: SVG Repo, www.svgrepo.com, Generator: SVG Repo Mixer Tools -->
<svg height="800px" width="800px" version="1.1" id="Layer_1" xmlns="http://www.w3.org/2000/svg" xmlns:xlink="http://www.w3.org/1999/xlink" 
	 viewBox="0 0 512 512" xml:space="preserve">
<path style="fill:#B3B9BF;" d="M469.062,119.847H399.49c-4.504,0-8.153,3.649-8.153,8.153v260.033
	c0,33.19,26.603,60.636,59.304,61.181c0.347,0.005,0.694,0.009,1.04,0.009c15.928,0,30.911-6.126,42.287-17.313
	C505.596,420.475,512,405.197,512,388.892V162.786C512,139.11,492.738,119.847,469.062,119.847z"/>
<path style="fill:#D9DCDF;" d="M469.062,119.847h-91.674v207.626h44.387c4.503,0,8.153-3.65,8.153-8.153V162.786
	c0-22.822,17.806-41.475,40.281-42.848C469.833,119.884,469.452,119.847,469.062,119.847z"/>
<path style="fill:#F6F6F7;" d="M391.338,388.033V183.439H0v205.452c0,33.267,27.064,60.331,60.331,60.331
	c0,0,344.365-0.04,388.098-0.102C416.752,447.405,391.338,420.47,391.338,388.033z"/>
<path style="fill:#FF8C78;" d="M391.338,70.93c0-4.503-3.65-8.153-8.153-8.153H8.153C3.65,62.777,0,66.427,0,70.93v130.446h391.338
	V70.93z"/>
<g>
	<path style="fill:#FFC5BB;" d="M104.357,93.758c-4.504,0-8.153,3.649-8.153,8.153v38.836L58.368,96.605
		c-2.22-2.589-5.819-3.524-9.019-2.34c-3.199,1.184-5.323,4.235-5.323,7.646v60.875c0,4.504,3.649,8.153,8.153,8.153
		s8.153-3.649,8.153-8.153V123.95l37.836,44.141c1.579,1.843,3.857,2.847,6.192,2.847c0.947,0,1.903-0.164,2.827-0.507
		c3.199-1.184,5.323-4.235,5.323-7.646V101.91C112.51,97.407,108.86,93.758,104.357,93.758z"/>
	<path style="fill:#FFC5BB;" d="M173.928,110.064c4.504,0,8.153-3.649,8.153-8.153c0-4.504-3.649-8.153-8.153-8.153h-43.482
		c-4.504,0-8.153,3.649-8.153,8.153v60.875c0,4.504,3.649,8.153,8.153,8.153h43.482c4.504,0,8.153-3.649,8.153-8.153
		s-3.649-8.153-8.153-8.153h-35.329v-18.48h17.936c4.504,0,8.153-3.649,8.153-8.153c0-4.504-3.649-8.153-8.153-8.153h-17.936v-9.783
		H173.928z"/>
	<path style="fill:#FFC5BB;" d="M271.829,94.072c-4.329-1.242-8.843,1.269-10.078,5.598l-10.842,37.943l-8.536-21.339
		c-1.239-3.096-4.236-5.125-7.57-5.125c-3.334,0-6.331,2.03-7.57,5.125l-8.536,21.339L207.855,99.67
		c-1.237-4.33-5.753-6.84-10.078-5.598c-4.329,1.237-6.836,5.749-5.598,10.078l17.393,60.875c0.958,3.352,3.941,5.724,7.422,5.903
		c3.5,0.195,6.691-1.877,7.987-5.115l9.823-24.558l9.823,24.558c1.244,3.107,4.249,5.125,7.568,5.125
		c0.139,0,0.278-0.003,0.419-0.011c3.482-0.178,6.465-2.55,7.422-5.903l17.393-60.875C278.665,99.822,276.157,95.309,271.829,94.072
		z"/>
	<path style="fill:#FFC5BB;" d="M339.159,128.544H303.83v-18.48h35.329c4.504,0,8.153-3.649,8.153-8.153
		c0-4.504-3.649-8.153-8.153-8.153h-43.482c-4.504,0-8.153,3.649-8.153,8.153v34.786c0,4.504,3.649,8.153,8.153,8.153h35.329v9.783
		h-35.329c-4.504,0-8.153,3.649-8.153,8.153s3.649,8.153,8.153,8.153h43.482c4.504,0,8.153-3.649,8.153-8.153v-26.089
		C347.312,132.193,343.663,128.544,339.159,128.544z"/>
</g>
<g>
	<path style="fill:#B3B9BF;" d="M160.883,224.204H56.527c-4.504,0-8.153,3.649-8.153,8.153v86.964c0,4.504,3.649,8.153,8.153,8.153
		h104.357c4.504,0,8.153-3.649,8.153-8.153v-86.964C169.036,227.853,165.387,224.204,160.883,224.204z"/>
	<path style="fill:#B3B9BF;" d="M343.507,283.992H221.758c-4.504,0-8.153-3.649-8.153-8.153c0-4.504,3.649-8.153,8.153-8.153
		h121.749c4.504,0,8.153,3.649,8.153,8.153C351.66,280.342,348.011,283.992,343.507,283.992z"/>
	<path style="fill:#B3B9BF;" d="M343.507,240.51H221.758c-4.504,0-8.153-3.649-8.153-8.153c0-4.504,3.649-8.153,8.153-8.153h121.749
		c4.504,0,8.153,3.649,8.153,8.153C351.66,236.86,348.011,240.51,343.507,240.51z"/>
	<path style="fill:#B3B9BF;" d="M343.507,327.473H221.758c-4.504,0-8.153-3.649-8.153-8.153c0-4.504,3.649-8.153,8.153-8.153
		h121.749c4.504,0,8.153,3.649,8.153,8.153C351.66,323.824,348.011,327.473,343.507,327.473z"/>
	<path style="fill:#B3B9BF;" d="M343.507,370.955H221.758c-4.504,0-8.153-3.649-8.153-8.153s3.649-8.153,8.153-8.153h121.749
		c4.504,0,8.153,3.649,8.153,8.153S348.011,370.955,343.507,370.955z"/>
	<path style="fill:#B3B9BF;" d="M169.58,370.955H47.83c-4.504,0-8.153-3.649-8.153-8.153s3.649-8.153,8.153-8.153H169.58
		c4.504,0,8.153,3.649,8.153,8.153S174.083,370.955,169.58,370.955z"/>
	<path style="fill:#B3B9BF;" d="M169.58,414.437H47.83c-4.504,0-8.153-3.649-8.153-8.153c0-4.504,3.649-8.153,8.153-8.153H169.58
		c4.504,0,8.153,3.649,8.153,8.153C177.732,410.788,174.083,414.437,169.58,414.437z"/>
	<path style="fill:#B3B9BF;" d="M343.507,414.437H221.758c-4.504,0-8.153-3.649-8.153-8.153c0-4.504,3.649-8.153,8.153-8.153
		h121.749c4.504,0,8.153,3.649,8.153,8.153C351.66,410.788,348.011,414.437,343.507,414.437z"/>
</g>
</svg>